<svg width="97" height="25" viewBox="0 0 97 25" fill="none" xmlns="http://www.w3.org/2000/svg">
<g clip-path="url(#clip0_2153_4405)">
<path d="M20.9939 8.23575C20.6169 8.13034 20.2218 8.09763 19.8315 8.1395C19.4412 8.18137 19.0634 8.297 18.7201 8.47969C18.3768 8.66238 18.0747 8.9085 17.8314 9.20378C17.5881 9.49906 17.4084 9.83765 17.3027 10.1999C17.1971 10.5622 17.1675 10.9409 17.2157 11.3142C17.264 11.6875 17.3891 12.0479 17.5838 12.3746C17.7785 12.7013 18.039 12.9877 18.3501 13.2173C18.6612 13.4468 19.0168 13.615 19.3962 13.712C19.6568 13.7788 19.9253 13.813 20.1951 13.8138C20.914 13.817 21.6096 13.5699 22.1524 13.1185C22.6953 12.6672 23.0484 12.0423 23.1461 11.3602C23.2438 10.6781 23.0794 9.9852 22.6835 9.41051C22.2876 8.83583 21.6871 8.41849 20.9939 8.23615V8.23575ZM21.6919 12.4079C21.4247 12.6633 21.0913 12.8461 20.7261 12.9375C20.3608 13.029 19.9767 13.0258 19.6131 12.9283C19.2643 12.8369 18.9463 12.66 18.6906 12.4151C18.4349 12.1702 18.2502 11.8657 18.1548 11.5316C18.0533 11.1834 18.0501 10.8156 18.1456 10.4658C18.241 10.1161 18.4317 9.79682 18.6982 9.54072C18.8949 9.35153 19.1288 9.20156 19.3864 9.09948C19.644 8.99741 19.9201 8.94526 20.1989 8.94604C20.3941 8.94648 20.5884 8.97102 20.777 9.01906C21.1258 9.11064 21.4437 9.28762 21.6994 9.53258C21.9551 9.77754 22.1398 10.082 22.2354 10.4161C22.3369 10.7645 22.3402 11.1324 22.2447 11.4823C22.1492 11.8322 21.9585 12.1516 21.6919 12.4079Z" fill="#FF0000"/>
<path d="M26.1423 9.49846L25.4985 9.25142C25.4346 9.22689 25.3765 9.19039 25.3276 9.14406C25.2787 9.09773 25.2399 9.0425 25.2136 8.98162C25.1873 8.92073 25.1739 8.85543 25.1743 8.78954C25.1747 8.72364 25.1889 8.65849 25.216 8.59792L25.4887 7.98944C25.5968 7.74978 25.627 7.48447 25.5752 7.22815C25.5235 6.97183 25.3922 6.73641 25.1986 6.55263L24.8131 6.18309C24.6214 5.9973 24.3756 5.87124 24.1079 5.82137C23.8401 5.77151 23.5629 5.80016 23.3125 5.90359L22.6771 6.16483C22.6139 6.19068 22.546 6.20418 22.4773 6.20453C22.4085 6.20489 22.3404 6.19208 22.2769 6.16688C22.2135 6.14167 22.1559 6.10457 22.1076 6.05776C22.0592 6.01094 22.0212 5.95536 21.9956 5.89426L21.7377 5.27686C21.6367 5.03435 21.4618 4.82657 21.2357 4.68057C21.0097 4.53457 20.743 4.45711 20.4704 4.45826H19.9198C19.6472 4.45748 19.3806 4.53529 19.1548 4.68158C18.929 4.82787 18.7544 5.03586 18.6537 5.27849L18.3958 5.89589C18.3702 5.957 18.3321 6.01259 18.2837 6.05941C18.2354 6.10623 18.1778 6.14333 18.1142 6.16853C18.0507 6.19373 17.9826 6.20653 17.9138 6.20617C17.8451 6.20582 17.7771 6.19231 17.7139 6.16645L17.0777 5.90359C16.8275 5.80033 16.5506 5.77169 16.2831 5.8214C16.0156 5.87111 15.77 5.99687 15.5783 6.18227L15.1928 6.55141C14.9988 6.73499 14.8671 6.97038 14.8149 7.22679C14.7628 7.48321 14.7926 7.74872 14.9006 7.98863L15.1729 8.5971C15.1999 8.65767 15.2141 8.72278 15.2145 8.78864C15.2149 8.8545 15.2016 8.91977 15.1753 8.98063C15.149 9.0415 15.1103 9.09672 15.0615 9.14308C15.0126 9.18944 14.9546 9.226 14.8908 9.25061L14.2462 9.49764C13.9929 9.59406 13.7758 9.76138 13.6234 9.97775C13.4709 10.1941 13.39 10.4495 13.3914 10.7105V11.2379C13.3906 11.499 13.4719 11.7542 13.6246 11.9705C13.7774 12.1867 13.9945 12.3539 14.2479 12.4504L14.8921 12.6974C14.956 12.7218 15.0141 12.7583 15.0631 12.8046C15.112 12.8509 15.1508 12.9061 15.1771 12.9669C15.2035 13.0278 15.2168 13.0931 15.2164 13.159C15.2159 13.2248 15.2017 13.29 15.1746 13.3505L14.9018 13.959C14.7937 14.1986 14.7635 14.4639 14.8152 14.7202C14.8668 14.9765 14.998 15.212 15.1916 15.3958L15.577 15.7649C15.7687 15.9508 16.0145 16.0769 16.2822 16.1269C16.5499 16.1768 16.8272 16.1482 17.0777 16.0448L17.713 15.784C17.7762 15.7581 17.8442 15.7445 17.9129 15.7442C17.9817 15.7438 18.0498 15.7566 18.1133 15.7818C18.1768 15.807 18.2344 15.8441 18.2827 15.891C18.331 15.9378 18.369 15.9934 18.3945 16.0546L18.6525 16.6711C18.753 16.9139 18.9276 17.122 19.1534 17.2684C19.3792 17.4147 19.6458 17.4926 19.9185 17.4918H20.4691C20.7417 17.4926 21.0083 17.4147 21.2341 17.2685C21.4599 17.1222 21.6345 16.9142 21.7351 16.6716L21.9931 16.0546C22.0186 15.9934 22.0566 15.9377 22.105 15.8908C22.1533 15.8439 22.2109 15.8068 22.2745 15.7816C22.338 15.7564 22.4062 15.7436 22.475 15.744C22.5438 15.7444 22.6118 15.758 22.675 15.784L23.3104 16.0452C23.5606 16.1485 23.8375 16.1772 24.1051 16.1278C24.3727 16.0783 24.6185 15.9528 24.8106 15.7678L25.196 15.3986C25.3907 15.2151 25.5228 14.9794 25.5752 14.7227C25.6276 14.4659 25.5977 14.2 25.4896 13.9598L25.2172 13.3513C25.1902 13.2908 25.176 13.2257 25.1756 13.1599C25.1752 13.094 25.1886 13.0288 25.2149 12.968C25.2412 12.9072 25.28 12.852 25.3289 12.8057C25.3778 12.7595 25.4359 12.7231 25.4997 12.6986L26.1435 12.4516C26.3971 12.3554 26.6145 12.1883 26.7672 11.972C26.92 11.7557 27.0012 11.5003 27 11.2391V10.7118C27.0012 10.4503 26.92 10.1946 26.767 9.97813C26.6139 9.76164 26.3962 9.59445 26.1423 9.49846ZM26.1512 11.2379C26.1516 11.3367 26.1209 11.4333 26.0631 11.5152C26.0053 11.597 25.9231 11.6603 25.8271 11.6967L25.1825 11.9441C25.0138 12.0088 24.8602 12.1052 24.731 12.2275C24.6017 12.3499 24.4994 12.4958 24.4299 12.6567C24.3604 12.8175 24.3253 12.99 24.3265 13.1641C24.3277 13.3382 24.3653 13.5102 24.437 13.6702L24.709 14.2786C24.7499 14.3695 24.7613 14.47 24.7419 14.5671C24.7224 14.6643 24.6728 14.7536 24.5997 14.8234L24.2142 15.1926C24.1414 15.2627 24.0483 15.3102 23.9469 15.3289C23.8455 15.3476 23.7406 15.3367 23.6458 15.2976L23.0105 15.0368C22.8435 14.9681 22.6638 14.9321 22.4821 14.9309C22.3003 14.9297 22.1202 14.9634 21.9522 15.0299C21.7843 15.0965 21.6319 15.1945 21.5042 15.3183C21.3764 15.4421 21.2758 15.5891 21.2082 15.7507L20.9499 16.3685C20.9118 16.4604 20.8458 16.5391 20.7603 16.5944C20.6749 16.6498 20.574 16.6792 20.4708 16.6789H19.9202C19.817 16.6792 19.7161 16.6497 19.6306 16.5943C19.5451 16.5389 19.4791 16.46 19.4411 16.3681L19.1828 15.7507C19.1155 15.5889 19.0151 15.4417 18.8873 15.3177C18.7596 15.1937 18.6072 15.0955 18.4392 15.029C18.2712 14.9624 18.0909 14.9288 17.909 14.9301C17.7272 14.9315 17.5475 14.9677 17.3805 15.0368L16.7452 15.2972C16.6504 15.3368 16.5453 15.348 16.4437 15.3294C16.3421 15.3108 16.2488 15.2632 16.1759 15.193L15.7905 14.8238C15.7173 14.7541 15.6678 14.6649 15.6482 14.5678C15.6286 14.4707 15.64 14.3703 15.6808 14.2794L15.9531 13.671C16.0249 13.511 16.0624 13.339 16.0637 13.1649C16.0649 12.9908 16.0297 12.8183 15.9603 12.6575C15.8908 12.4966 15.7884 12.3507 15.6592 12.2283C15.5299 12.106 15.3764 12.0096 15.2077 11.9449L14.5617 11.6967C14.4658 11.6602 14.3836 11.597 14.3258 11.5151C14.268 11.4333 14.2373 11.3367 14.2377 11.2379V10.7105C14.2375 10.6117 14.2682 10.5151 14.326 10.4332C14.3838 10.3514 14.4659 10.288 14.5617 10.2513L15.2068 10.0043C15.3756 9.93963 15.5291 9.84326 15.6583 9.72089C15.7876 9.59852 15.89 9.45261 15.9594 9.29177C16.0289 9.13092 16.064 8.95838 16.0628 8.78432C16.0616 8.61026 16.024 8.4382 15.9523 8.27826L15.6804 7.66979C15.6393 7.57895 15.6278 7.47837 15.6474 7.38118C15.667 7.28399 15.7167 7.19471 15.7901 7.125L16.1755 6.75586C16.2482 6.68567 16.3414 6.6381 16.4428 6.61936C16.5442 6.60062 16.6491 6.61157 16.7439 6.6508L17.3793 6.91204C17.5463 6.9806 17.726 7.01646 17.9078 7.01753C18.0895 7.01859 18.2697 6.98483 18.4376 6.91824C18.6055 6.85164 18.7578 6.75355 18.8856 6.62973C19.0133 6.50592 19.114 6.35889 19.1815 6.19728L19.4399 5.58029C19.4779 5.48842 19.5439 5.40967 19.6294 5.3543C19.7148 5.29894 19.8157 5.26955 19.9189 5.26997H20.4695C20.5727 5.26955 20.6736 5.29894 20.7591 5.3543C20.8445 5.40967 20.9106 5.48842 20.9486 5.58029L21.207 6.19728C21.2745 6.35889 21.3751 6.50592 21.5029 6.62973C21.6306 6.75355 21.783 6.85164 21.9509 6.91824C22.1188 6.98483 22.2989 7.01859 22.4807 7.01753C22.6624 7.01646 22.8421 6.9806 23.0092 6.91204L23.6445 6.6508C23.7393 6.61157 23.8443 6.60062 23.9457 6.61936C24.0471 6.6381 24.1402 6.68567 24.213 6.75586L24.5984 7.125C24.6716 7.19464 24.7212 7.28377 24.7408 7.3808C24.7604 7.47782 24.749 7.57824 24.7081 7.66898L24.4358 8.27745C24.364 8.43741 24.3265 8.6095 24.3253 8.78358C24.3241 8.95766 24.3593 9.13021 24.4288 9.29106C24.4983 9.45191 24.6007 9.59781 24.73 9.72017C24.8593 9.84252 25.0129 9.93885 25.1816 10.0035L25.8259 10.2505C25.9218 10.2871 26.004 10.3504 26.0617 10.4323C26.1195 10.5142 26.1502 10.6109 26.1499 10.7097L26.1512 11.2379Z" fill="#FF0000"/>
</g>
<path d="M41.8877 11.7249L40.6899 8.23901L39.417 11.7249H41.8877ZM40.1313 7.06812H41.3398L44.2026 14.9583H43.0317L42.2314 12.595H39.1108L38.2568 14.9583H37.1611L40.1313 7.06812ZM46.5627 8.1853H45.5959V7.06812H46.5627V8.1853ZM44.6828 16.4138C45.1161 16.3995 45.3757 16.3601 45.4616 16.2957C45.5511 16.2348 45.5959 16.0396 45.5959 15.7102V9.23267H46.5627V15.8123C46.5627 16.2312 46.4947 16.5445 46.3586 16.7522C46.133 17.1031 45.7051 17.2786 45.0749 17.2786C45.0284 17.2786 44.9782 17.2768 44.9245 17.2732C44.8744 17.2696 44.7938 17.2625 44.6828 17.2517V16.4138ZM49.5619 9.20581V13.0247C49.5619 13.3183 49.6085 13.5582 49.7016 13.7444C49.8734 14.0881 50.1939 14.26 50.663 14.26C51.3362 14.26 51.7945 13.9592 52.038 13.3577C52.1705 13.0354 52.2367 12.5932 52.2367 12.031V9.20581H53.2035V14.9583H52.2904L52.3012 14.1096C52.1758 14.328 52.0201 14.5125 51.8339 14.6628C51.4651 14.9636 51.0175 15.114 50.4911 15.114C49.6711 15.114 49.1125 14.8401 48.8153 14.2922C48.6542 13.9986 48.5736 13.6065 48.5736 13.116V9.20581H49.5619ZM55.8429 13.1536C55.8715 13.4758 55.9521 13.7229 56.0846 13.8948C56.3281 14.2063 56.7506 14.3621 57.3521 14.3621C57.7102 14.3621 58.0253 14.2851 58.2975 14.1311C58.5696 13.9736 58.7057 13.7319 58.7057 13.406C58.7057 13.1589 58.5965 12.9709 58.378 12.842C58.2384 12.7633 57.9627 12.672 57.5509 12.5681L56.7828 12.3748C56.2923 12.253 55.9306 12.1169 55.6979 11.9666C55.2825 11.7052 55.0748 11.3435 55.0748 10.8816C55.0748 10.3373 55.27 9.89689 55.6603 9.5603C56.0541 9.22371 56.5823 9.05542 57.2447 9.05542C58.1113 9.05542 58.7361 9.30965 59.1192 9.81812C59.3591 10.1404 59.4755 10.4877 59.4684 10.8601H58.5553C58.5374 10.6417 58.4604 10.443 58.3243 10.2639C58.1023 10.0097 57.7174 9.88257 57.1695 9.88257C56.8043 9.88257 56.5268 9.95239 56.337 10.092C56.1508 10.2317 56.0577 10.4161 56.0577 10.6453C56.0577 10.8959 56.1812 11.0964 56.4283 11.2468C56.5715 11.3363 56.7828 11.4151 57.0621 11.4832L57.7013 11.6389C58.3959 11.8072 58.8614 11.9701 59.0978 12.1277C59.4737 12.3748 59.6617 12.7633 59.6617 13.2932C59.6617 13.8053 59.4666 14.2475 59.0763 14.6199C58.6896 14.9923 58.0987 15.1785 57.3038 15.1785C56.448 15.1785 55.8411 14.9851 55.483 14.5984C55.1285 14.2081 54.9387 13.7265 54.9137 13.1536H55.8429ZM61.5115 7.59985H62.4891V9.20581H63.4075V9.99536H62.4891V13.7498C62.4891 13.9503 62.5571 14.0846 62.6932 14.1526C62.7684 14.192 62.8937 14.2117 63.0691 14.2117C63.1157 14.2117 63.1658 14.2117 63.2195 14.2117C63.2732 14.2081 63.3359 14.2027 63.4075 14.1956V14.9583C63.2965 14.9905 63.1801 15.0138 63.0584 15.0281C62.9402 15.0424 62.8113 15.0496 62.6717 15.0496C62.2205 15.0496 61.9144 14.935 61.7532 14.7058C61.5921 14.4731 61.5115 14.1723 61.5115 13.8035V9.99536H60.7327V9.20581H61.5115V7.59985ZM67.3252 9.0769C67.7334 9.0769 68.1291 9.17358 68.5122 9.36694C68.8953 9.55672 69.1872 9.80379 69.3877 10.1082C69.5811 10.3982 69.71 10.7366 69.7744 11.1233C69.8317 11.3883 69.8604 11.8108 69.8604 12.3909H65.644C65.6619 12.9745 65.7998 13.4436 66.0576 13.7981C66.3154 14.149 66.7147 14.3245 67.2554 14.3245C67.7603 14.3245 68.1631 14.158 68.4639 13.825C68.6357 13.6316 68.7575 13.4078 68.8291 13.1536H69.7798C69.7547 13.3648 69.6706 13.6012 69.5273 13.8625C69.3877 14.1204 69.2301 14.3316 69.0547 14.4963C68.7611 14.7828 68.3976 14.9762 67.9644 15.0764C67.7316 15.1337 67.4684 15.1624 67.1748 15.1624C66.4587 15.1624 65.8517 14.9028 65.354 14.3835C64.8563 13.8608 64.6074 13.1303 64.6074 12.1921C64.6074 11.2683 64.8581 10.5181 65.3594 9.94165C65.8607 9.36515 66.516 9.0769 67.3252 9.0769ZM68.8667 11.6228C68.8273 11.2039 68.736 10.8691 68.5928 10.6184C68.3278 10.1529 67.8856 9.92017 67.2661 9.92017C66.8221 9.92017 66.4497 10.0813 66.1489 10.4036C65.8481 10.7222 65.6888 11.1287 65.6709 11.6228H68.8667ZM72.1774 13.1536C72.2061 13.4758 72.2867 13.7229 72.4191 13.8948C72.6626 14.2063 73.0852 14.3621 73.6867 14.3621C74.0448 14.3621 74.3599 14.2851 74.632 14.1311C74.9042 13.9736 75.0402 13.7319 75.0402 13.406C75.0402 13.1589 74.931 12.9709 74.7126 12.842C74.5729 12.7633 74.2972 12.672 73.8854 12.5681L73.1174 12.3748C72.6268 12.253 72.2652 12.1169 72.0324 11.9666C71.6171 11.7052 71.4094 11.3435 71.4094 10.8816C71.4094 10.3373 71.6045 9.89689 71.9948 9.5603C72.3887 9.22371 72.9169 9.05542 73.5793 9.05542C74.4458 9.05542 75.0707 9.30965 75.4538 9.81812C75.6937 10.1404 75.8101 10.4877 75.8029 10.8601H74.8898C74.8719 10.6417 74.795 10.443 74.6589 10.2639C74.4369 10.0097 74.052 9.88257 73.5041 9.88257C73.1389 9.88257 72.8614 9.95239 72.6716 10.092C72.4854 10.2317 72.3923 10.4161 72.3923 10.6453C72.3923 10.8959 72.5158 11.0964 72.7629 11.2468C72.9061 11.3363 73.1174 11.4151 73.3967 11.4832L74.0358 11.6389C74.7305 11.8072 75.196 11.9701 75.4323 12.1277C75.8083 12.3748 75.9963 12.7633 75.9963 13.2932C75.9963 13.8053 75.8011 14.2475 75.4108 14.6199C75.0241 14.9923 74.4333 15.1785 73.6384 15.1785C72.7826 15.1785 72.1757 14.9851 71.8176 14.5984C71.4631 14.2081 71.2733 13.7265 71.2482 13.1536H72.1774Z" fill="#FF0000"/>
<rect x="0.3" y="0.3" width="96.4" height="24.4" rx="7.7" stroke="#FF0000" stroke-width="0.6"/>
<defs>
<clipPath id="clip0_2153_4405">
<rect width="15" height="20" fill="white" transform="translate(12 1.45825)"/>
</clipPath>
</defs>
</svg>
