<svg width="97" height="25" viewBox="0 0 97 25" fill="none" xmlns="http://www.w3.org/2000/svg">
<g clip-path="url(#clip0_1958_7193)">
<path d="M20.9939 8.23584C20.6169 8.13043 20.2218 8.09772 19.8315 8.13959C19.4412 8.18147 19.0634 8.2971 18.7201 8.47978C18.3768 8.66247 18.0747 8.90859 17.8314 9.20387C17.5881 9.49916 17.4084 9.83774 17.3027 10.2C17.1971 10.5623 17.1675 10.941 17.2157 11.3143C17.264 11.6876 17.3891 12.048 17.5838 12.3747C17.7785 12.7014 18.039 12.9878 18.3501 13.2173C18.6612 13.4469 19.0168 13.6151 19.3962 13.7121C19.6568 13.7789 19.9253 13.8131 20.1951 13.8139C20.914 13.8171 21.6096 13.57 22.1524 13.1186C22.6953 12.6673 23.0484 12.0424 23.1461 11.3603C23.2438 10.6782 23.0794 9.98529 22.6835 9.4106C22.2876 8.83592 21.6871 8.41858 20.9939 8.23624V8.23584ZM21.6919 12.4079C21.4247 12.6634 21.0913 12.8461 20.7261 12.9376C20.3608 13.029 19.9767 13.0259 19.6131 12.9284C19.2643 12.837 18.9463 12.6601 18.6906 12.4152C18.4349 12.1703 18.2502 11.8658 18.1548 11.5317C18.0533 11.1835 18.0501 10.8157 18.1456 10.4659C18.241 10.1162 18.4317 9.79691 18.6982 9.54081C18.8949 9.35162 19.1288 9.20165 19.3864 9.09957C19.644 8.9975 19.9201 8.94535 20.1989 8.94613C20.3941 8.94657 20.5884 8.97112 20.777 9.01915C21.1258 9.11073 21.4437 9.28771 21.6994 9.53267C21.9551 9.77763 22.1398 10.0821 22.2354 10.4162C22.3369 10.7645 22.3402 11.1325 22.2447 11.4824C22.1492 11.8323 21.9585 12.1517 21.6919 12.4079Z" fill="#282828"/>
<path d="M26.1423 9.49855L25.4985 9.25151C25.4346 9.22698 25.3765 9.19048 25.3276 9.14415C25.2787 9.09782 25.2399 9.04259 25.2136 8.98171C25.1873 8.92083 25.1739 8.85552 25.1743 8.78963C25.1747 8.72374 25.1889 8.65859 25.216 8.59801L25.4887 7.98953C25.5968 7.74987 25.627 7.48456 25.5752 7.22824C25.5235 6.97192 25.3922 6.7365 25.1986 6.55272L24.8131 6.18318C24.6214 5.99739 24.3756 5.87133 24.1079 5.82146C23.8401 5.7716 23.5629 5.80025 23.3125 5.90368L22.6771 6.16492C22.6139 6.19078 22.546 6.20427 22.4773 6.20463C22.4085 6.20498 22.3404 6.19217 22.2769 6.16697C22.2135 6.14176 22.1559 6.10467 22.1076 6.05785C22.0592 6.01104 22.0212 5.95545 21.9956 5.89435L21.7377 5.27696C21.6367 5.03444 21.4618 4.82666 21.2357 4.68066C21.0097 4.53466 20.743 4.4572 20.4704 4.45836H19.9198C19.6472 4.45757 19.3806 4.53539 19.1548 4.68167C18.929 4.82796 18.7544 5.03595 18.6537 5.27858L18.3958 5.89598C18.3702 5.95709 18.3321 6.01268 18.2837 6.0595C18.2354 6.10632 18.1778 6.14342 18.1142 6.16862C18.0507 6.19382 17.9826 6.20662 17.9138 6.20627C17.8451 6.20591 17.7771 6.1924 17.7139 6.16655L17.0777 5.90368C16.8275 5.80042 16.5506 5.77178 16.2831 5.82149C16.0156 5.8712 15.77 5.99696 15.5783 6.18237L15.1928 6.55151C14.9988 6.73508 14.8671 6.97047 14.8149 7.22688C14.7628 7.4833 14.7926 7.74882 14.9006 7.98872L15.1729 8.5972C15.1999 8.65776 15.2141 8.72287 15.2145 8.78873C15.2149 8.85459 15.2016 8.91986 15.1753 8.98073C15.149 9.04159 15.1103 9.09682 15.0615 9.14317C15.0126 9.18953 14.9546 9.22609 14.8908 9.2507L14.2462 9.49774C13.9929 9.59416 13.7758 9.76147 13.6234 9.97784C13.4709 10.1942 13.39 10.4496 13.3914 10.7106V11.238C13.3906 11.4991 13.4719 11.7543 13.6246 11.9706C13.7774 12.1868 13.9945 12.354 14.2479 12.4505L14.8921 12.6975C14.956 12.7219 15.0141 12.7584 15.0631 12.8047C15.112 12.8509 15.1508 12.9061 15.1771 12.967C15.2035 13.0279 15.2168 13.0932 15.2164 13.159C15.2159 13.2249 15.2017 13.2901 15.1746 13.3506L14.9018 13.9591C14.7937 14.1987 14.7635 14.464 14.8152 14.7203C14.8668 14.9766 14.998 15.2121 15.1916 15.3959L15.577 15.765C15.7687 15.9509 16.0145 16.077 16.2822 16.1269C16.5499 16.1769 16.8272 16.1483 17.0777 16.0449L17.713 15.7841C17.7762 15.7582 17.8442 15.7446 17.9129 15.7443C17.9817 15.7439 18.0498 15.7567 18.1133 15.7819C18.1768 15.8071 18.2344 15.8442 18.2827 15.8911C18.331 15.9379 18.369 15.9935 18.3945 16.0547L18.6525 16.6712C18.753 16.914 18.9276 17.1221 19.1534 17.2685C19.3792 17.4148 19.6458 17.4927 19.9185 17.4919H20.4691C20.7417 17.4927 21.0083 17.4148 21.2341 17.2685C21.4599 17.1223 21.6345 16.9143 21.7351 16.6716L21.9931 16.0547C22.0186 15.9935 22.0566 15.9378 22.105 15.8909C22.1533 15.844 22.2109 15.8069 22.2745 15.7817C22.338 15.7565 22.4062 15.7437 22.475 15.7441C22.5438 15.7445 22.6118 15.7581 22.675 15.7841L23.3104 16.0453C23.5606 16.1486 23.8375 16.1773 24.1051 16.1278C24.3727 16.0784 24.6185 15.9529 24.8106 15.7679L25.196 15.3987C25.3907 15.2151 25.5228 14.9795 25.5752 14.7228C25.6276 14.466 25.5977 14.2001 25.4896 13.9599L25.2172 13.3514C25.1902 13.2909 25.176 13.2258 25.1756 13.16C25.1752 13.0941 25.1886 13.0289 25.2149 12.9681C25.2412 12.9072 25.28 12.8521 25.3289 12.8058C25.3778 12.7596 25.4359 12.7232 25.4997 12.6987L26.1435 12.4517C26.3971 12.3555 26.6145 12.1884 26.7672 11.9721C26.92 11.7558 27.0012 11.5003 27 11.2392V10.7118C27.0012 10.4504 26.92 10.1947 26.767 9.97822C26.6139 9.76173 26.3962 9.59454 26.1423 9.49855ZM26.1512 11.238C26.1516 11.3368 26.1209 11.4334 26.0631 11.5153C26.0053 11.5971 25.9231 11.6604 25.8271 11.6968L25.1825 11.9442C25.0138 12.0089 24.8602 12.1052 24.731 12.2276C24.6017 12.35 24.4994 12.4959 24.4299 12.6567C24.3604 12.8176 24.3253 12.9901 24.3265 13.1642C24.3277 13.3382 24.3653 13.5103 24.437 13.6702L24.709 14.2787C24.7499 14.3695 24.7613 14.4701 24.7419 14.5672C24.7224 14.6644 24.6728 14.7537 24.5997 14.8235L24.2142 15.1926C24.1414 15.2627 24.0483 15.3102 23.9469 15.329C23.8455 15.3477 23.7406 15.3368 23.6458 15.2977L23.0105 15.0369C22.8435 14.9682 22.6638 14.9322 22.4821 14.931C22.3003 14.9298 22.1202 14.9635 21.9522 15.03C21.7843 15.0966 21.6319 15.1946 21.5042 15.3184C21.3764 15.4422 21.2758 15.5892 21.2082 15.7508L20.9499 16.3686C20.9118 16.4605 20.8458 16.5392 20.7603 16.5945C20.6749 16.6499 20.574 16.6793 20.4708 16.6789H19.9202C19.817 16.6793 19.7161 16.6498 19.6306 16.5944C19.5451 16.5389 19.4791 16.4601 19.4411 16.3682L19.1828 15.7508C19.1155 15.589 19.0151 15.4418 18.8873 15.3178C18.7596 15.1938 18.6072 15.0956 18.4392 15.0291C18.2712 14.9625 18.0909 14.9289 17.909 14.9302C17.7272 14.9316 17.5475 14.9678 17.3805 15.0369L16.7452 15.2973C16.6504 15.3369 16.5453 15.3481 16.4437 15.3295C16.3421 15.3109 16.2488 15.2633 16.1759 15.1931L15.7905 14.8239C15.7173 14.7541 15.6678 14.6649 15.6482 14.5679C15.6286 14.4708 15.64 14.3703 15.6808 14.2795L15.9531 13.6711C16.0249 13.5111 16.0624 13.3391 16.0637 13.165C16.0649 12.9909 16.0297 12.8184 15.9603 12.6576C15.8908 12.4967 15.7884 12.3508 15.6592 12.2284C15.5299 12.1061 15.3764 12.0097 15.2077 11.945L14.5617 11.6968C14.4658 11.6603 14.3836 11.5971 14.3258 11.5152C14.268 11.4334 14.2373 11.3368 14.2377 11.238V10.7106C14.2375 10.6118 14.2682 10.5152 14.326 10.4333C14.3838 10.3515 14.4659 10.2881 14.5617 10.2514L15.2068 10.0044C15.3756 9.93972 15.5291 9.84336 15.6583 9.72098C15.7876 9.59861 15.89 9.45271 15.9594 9.29186C16.0289 9.13101 16.064 8.95848 16.0628 8.78442C16.0616 8.61035 16.024 8.43829 15.9523 8.27836L15.6804 7.66988C15.6393 7.57904 15.6278 7.47846 15.6474 7.38127C15.667 7.28408 15.7167 7.1948 15.7901 7.12509L16.1755 6.75595C16.2482 6.68576 16.3414 6.63819 16.4428 6.61945C16.5442 6.60071 16.6491 6.61167 16.7439 6.65089L17.3793 6.91213C17.5463 6.98069 17.726 7.01656 17.9078 7.01762C18.0895 7.01869 18.2697 6.98493 18.4376 6.91833C18.6055 6.85173 18.7578 6.75364 18.8856 6.62982C19.0133 6.50601 19.114 6.35898 19.1815 6.19737L19.4399 5.58038C19.4779 5.48851 19.5439 5.40976 19.6294 5.3544C19.7148 5.29903 19.8157 5.26964 19.9189 5.27006H20.4695C20.5727 5.26964 20.6736 5.29903 20.7591 5.3544C20.8445 5.40976 20.9106 5.48851 20.9486 5.58038L21.207 6.19737C21.2745 6.35898 21.3751 6.50601 21.5029 6.62982C21.6306 6.75364 21.783 6.85173 21.9509 6.91833C22.1188 6.98493 22.2989 7.01869 22.4807 7.01762C22.6624 7.01656 22.8421 6.98069 23.0092 6.91213L23.6445 6.65089C23.7393 6.61167 23.8443 6.60071 23.9457 6.61945C24.0471 6.63819 24.1402 6.68576 24.213 6.75595L24.5984 7.12509C24.6716 7.19473 24.7212 7.28387 24.7408 7.38089C24.7604 7.47791 24.749 7.57833 24.7081 7.66907L24.4358 8.27754C24.364 8.4375 24.3265 8.60959 24.3253 8.78367C24.3241 8.95775 24.3593 9.1303 24.4288 9.29115C24.4983 9.452 24.6007 9.5979 24.73 9.72026C24.8593 9.84261 25.0129 9.93895 25.1816 10.0036L25.8259 10.2506C25.9218 10.2872 26.004 10.3505 26.0617 10.4324C26.1195 10.5143 26.1502 10.611 26.1499 10.7098L26.1512 11.238Z" fill="#282828"/>
</g>
<path d="M41.8877 11.7249L40.6899 8.23911L39.417 11.7249H41.8877ZM40.1313 7.06821H41.3398L44.2026 14.9583H43.0317L42.2314 12.5951H39.1108L38.2568 14.9583H37.1611L40.1313 7.06821ZM46.5627 8.18539H45.5959V7.06821H46.5627V8.18539ZM44.6828 16.4139C45.1161 16.3996 45.3757 16.3602 45.4616 16.2957C45.5511 16.2349 45.5959 16.0397 45.5959 15.7103V9.23276H46.5627V15.8123C46.5627 16.2313 46.4947 16.5446 46.3586 16.7523C46.133 17.1032 45.7051 17.2787 45.0749 17.2787C45.0284 17.2787 44.9782 17.2769 44.9245 17.2733C44.8744 17.2697 44.7938 17.2625 44.6828 17.2518V16.4139ZM49.5619 9.2059V13.0247C49.5619 13.3184 49.6085 13.5583 49.7016 13.7445C49.8734 14.0882 50.1939 14.2601 50.663 14.2601C51.3362 14.2601 51.7945 13.9593 52.038 13.3578C52.1705 13.0355 52.2367 12.5933 52.2367 12.0311V9.2059H53.2035V14.9583H52.2904L52.3012 14.1097C52.1758 14.3281 52.0201 14.5125 51.8339 14.6629C51.4651 14.9637 51.0175 15.1141 50.4911 15.1141C49.6711 15.1141 49.1125 14.8402 48.8153 14.2923C48.6542 13.9987 48.5736 13.6066 48.5736 13.1161V9.2059H49.5619ZM55.8429 13.1537C55.8715 13.4759 55.9521 13.723 56.0846 13.8949C56.3281 14.2064 56.7506 14.3622 57.3521 14.3622C57.7102 14.3622 58.0253 14.2852 58.2975 14.1312C58.5696 13.9736 58.7057 13.7319 58.7057 13.4061C58.7057 13.159 58.5965 12.971 58.378 12.8421C58.2384 12.7634 57.9627 12.672 57.5509 12.5682L56.7828 12.3748C56.2923 12.2531 55.9306 12.117 55.6979 11.9666C55.2825 11.7053 55.0748 11.3436 55.0748 10.8817C55.0748 10.3374 55.27 9.89698 55.6603 9.56039C56.0541 9.22381 56.5823 9.05551 57.2447 9.05551C58.1113 9.05551 58.7361 9.30974 59.1192 9.81821C59.3591 10.1405 59.4755 10.4878 59.4684 10.8602H58.5553C58.5374 10.6418 58.4604 10.443 58.3243 10.264C58.1023 10.0098 57.7174 9.88266 57.1695 9.88266C56.8043 9.88266 56.5268 9.95248 56.337 10.0921C56.1508 10.2318 56.0577 10.4162 56.0577 10.6454C56.0577 10.896 56.1812 11.0965 56.4283 11.2469C56.5715 11.3364 56.7828 11.4152 57.0621 11.4832L57.7013 11.639C58.3959 11.8073 58.8614 11.9702 59.0978 12.1278C59.4737 12.3748 59.6617 12.7634 59.6617 13.2933C59.6617 13.8053 59.4666 14.2476 59.0763 14.62C58.6896 14.9924 58.0987 15.1786 57.3038 15.1786C56.448 15.1786 55.8411 14.9852 55.483 14.5985C55.1285 14.2082 54.9387 13.7266 54.9137 13.1537H55.8429ZM61.5115 7.59995H62.4891V9.2059H63.4075V9.99545H62.4891V13.7498C62.4891 13.9504 62.5571 14.0846 62.6932 14.1527C62.7684 14.1921 62.8937 14.2118 63.0691 14.2118C63.1157 14.2118 63.1658 14.2118 63.2195 14.2118C63.2732 14.2082 63.3359 14.2028 63.4075 14.1956V14.9583C63.2965 14.9906 63.1801 15.0138 63.0584 15.0282C62.9402 15.0425 62.8113 15.0497 62.6717 15.0497C62.2205 15.0497 61.9144 14.9351 61.7532 14.7059C61.5921 14.4732 61.5115 14.1724 61.5115 13.8036V9.99545H60.7327V9.2059H61.5115V7.59995ZM67.3252 9.077C67.7334 9.077 68.1291 9.17368 68.5122 9.36703C68.8953 9.55681 69.1872 9.80388 69.3877 10.1082C69.5811 10.3983 69.71 10.7367 69.7744 11.1234C69.8317 11.3884 69.8604 11.8109 69.8604 12.391H65.644C65.6619 12.9746 65.7998 13.4437 66.0576 13.7982C66.3154 14.1491 66.7147 14.3246 67.2554 14.3246C67.7603 14.3246 68.1631 14.1581 68.4639 13.825C68.6357 13.6317 68.7575 13.4079 68.8291 13.1537H69.7798C69.7547 13.3649 69.6706 13.6012 69.5273 13.8626C69.3877 14.1205 69.2301 14.3317 69.0547 14.4964C68.7611 14.7829 68.3976 14.9762 67.9644 15.0765C67.7316 15.1338 67.4684 15.1624 67.1748 15.1624C66.4587 15.1624 65.8517 14.9028 65.354 14.3836C64.8563 13.8609 64.6074 13.1304 64.6074 12.1922C64.6074 11.2684 64.8581 10.5182 65.3594 9.94174C65.8607 9.36524 66.516 9.077 67.3252 9.077ZM68.8667 11.6229C68.8273 11.2039 68.736 10.8692 68.5928 10.6185C68.3278 10.153 67.8856 9.92026 67.2661 9.92026C66.8221 9.92026 66.4497 10.0814 66.1489 10.4037C65.8481 10.7223 65.6888 11.1288 65.6709 11.6229H68.8667ZM72.1774 13.1537C72.2061 13.4759 72.2867 13.723 72.4191 13.8949C72.6626 14.2064 73.0852 14.3622 73.6867 14.3622C74.0448 14.3622 74.3599 14.2852 74.632 14.1312C74.9042 13.9736 75.0402 13.7319 75.0402 13.4061C75.0402 13.159 74.931 12.971 74.7126 12.8421C74.5729 12.7634 74.2972 12.672 73.8854 12.5682L73.1174 12.3748C72.6268 12.2531 72.2652 12.117 72.0324 11.9666C71.6171 11.7053 71.4094 11.3436 71.4094 10.8817C71.4094 10.3374 71.6045 9.89698 71.9948 9.56039C72.3887 9.22381 72.9169 9.05551 73.5793 9.05551C74.4458 9.05551 75.0707 9.30974 75.4538 9.81821C75.6937 10.1405 75.8101 10.4878 75.8029 10.8602H74.8898C74.8719 10.6418 74.795 10.443 74.6589 10.264C74.4369 10.0098 74.052 9.88266 73.5041 9.88266C73.1389 9.88266 72.8614 9.95248 72.6716 10.0921C72.4854 10.2318 72.3923 10.4162 72.3923 10.6454C72.3923 10.896 72.5158 11.0965 72.7629 11.2469C72.9061 11.3364 73.1174 11.4152 73.3967 11.4832L74.0358 11.639C74.7305 11.8073 75.196 11.9702 75.4323 12.1278C75.8083 12.3748 75.9963 12.7634 75.9963 13.2933C75.9963 13.8053 75.8011 14.2476 75.4108 14.62C75.0241 14.9924 74.4333 15.1786 73.6384 15.1786C72.7826 15.1786 72.1757 14.9852 71.8176 14.5985C71.4631 14.2082 71.2733 13.7266 71.2482 13.1537H72.1774Z" fill="#282828"/>
<rect x="0.3" y="0.3" width="96.4" height="24.4" rx="7.7" stroke="#282828" stroke-width="0.6"/>
<defs>
<clipPath id="clip0_1958_7193">
<rect width="15" height="20" fill="white" transform="translate(12 1.45834)"/>
</clipPath>
</defs>
</svg>
