<svg width="97" height="25" viewBox="0 0 97 25" fill="none" xmlns="http://www.w3.org/2000/svg">
<g clip-path="url(#clip0_1958_7202)">
<path d="M27.8963 8.55339H28.2911C28.4227 8.55339 28.5397 8.45103 28.5397 8.3048V8.27556C28.5397 8.23169 28.5543 7.86612 29.0954 7.86612C29.4024 7.86612 29.5925 7.93923 29.5925 8.29018C29.5925 8.50952 29.2708 8.77273 29.0954 8.90434C28.8029 9.1383 28.5543 9.38689 28.5543 9.86944V9.95717C28.5543 10.0888 28.6567 10.2058 28.8029 10.2058H29.1977C29.3293 10.2058 29.4463 10.1034 29.4463 9.95717V9.88406C29.4463 9.79632 29.4463 9.76708 29.651 9.60623C29.9435 9.37226 30.4699 8.93358 30.4699 8.3048C30.4699 7.6614 30.1043 6.98875 29.0807 6.98875C28.0279 6.98875 27.6331 7.79301 27.6331 8.29018V8.31943C27.6477 8.45103 27.7647 8.55339 27.8963 8.55339Z" fill="black"/>
<path d="M29.2708 10.6298H28.7736C28.642 10.6298 28.5251 10.7322 28.5251 10.8784V11.3024C28.5251 11.434 28.6274 11.551 28.7736 11.551H29.2708C29.4024 11.551 29.5194 11.4487 29.5194 11.3024V10.8784C29.5048 10.7468 29.4024 10.6298 29.2708 10.6298Z" fill="black"/>
<path d="M33.8185 12.3406C33.7161 12.0189 33.4968 11.7557 33.1897 11.5949V7.35426C33.1897 6.05284 32.1369 5 30.8355 5H27.2968C25.9953 5 24.9425 6.05284 24.9425 7.35426V11.5656C24.5331 11.551 24.1382 11.6095 23.7434 11.7411L23.1439 11.9312V11.8873C23.1439 11.6534 22.9538 11.4486 22.7052 11.4486H20.4387C20.2047 11.4486 20 11.6387 20 11.8873V16.9468C20 17.1808 20.1901 17.3855 20.4387 17.3855H22.7198C22.9538 17.3855 23.1585 17.1954 23.1585 16.9468V16.9175L27.6477 17.3855C27.7501 17.4001 27.8524 17.4001 27.9548 17.4001C28.6274 17.4001 29.2855 17.1661 29.8119 16.7421L33.3944 13.8321C33.8331 13.4666 33.994 12.8817 33.8185 12.3406ZM22.2812 16.5081H20.8774V12.326H22.2812V16.5081ZM25.8199 7.35426C25.8199 6.53539 26.4779 5.87737 27.2968 5.87737H30.8501C31.669 5.87737 32.327 6.53539 32.327 7.35426V11.4486C32.2393 11.4633 32.1369 11.4925 32.0492 11.5218L28.8614 12.7647C28.759 12.6769 28.6274 12.6038 28.4812 12.56L25.9515 11.7265C25.9076 11.7118 25.8637 11.6972 25.8199 11.6826V7.35426ZM32.8388 13.1449L29.2708 16.0548C28.8321 16.4058 28.2911 16.5666 27.7354 16.5081L23.1439 16.0402V12.8524L24.0213 12.56C24.5477 12.3845 25.1472 12.3845 25.6736 12.56L28.2034 13.3935C28.2911 13.4227 28.3204 13.4812 28.335 13.5104C28.3496 13.5397 28.3788 13.6128 28.3496 13.6859C28.3203 13.7883 28.218 13.8468 28.1156 13.8468L25.3958 13.5982C25.1618 13.5689 24.9425 13.759 24.9279 13.993C24.8986 14.227 25.0887 14.4463 25.3227 14.4609L28.0425 14.7095C28.0718 14.7095 28.1156 14.7095 28.1449 14.7095C28.6128 14.7095 29.0369 14.4171 29.1831 13.9638C29.227 13.8321 29.2562 13.6859 29.2416 13.5543L32.3709 12.3406C32.4878 12.2968 32.6341 12.2968 32.751 12.3552C32.868 12.4137 32.9558 12.5161 32.9996 12.6331C33.0581 12.8086 32.9996 13.0279 32.8388 13.1449Z" fill="black"/>
</g>
<path d="M48.8877 11.7249L47.6899 8.23901L46.417 11.7249H48.8877ZM47.1313 7.06812H48.3398L51.2026 14.9583H50.0317L49.2314 12.595H46.1108L45.2568 14.9583H44.1611L47.1313 7.06812ZM55.9958 9.20581H57.0646C56.9286 9.57463 56.626 10.4161 56.1569 11.7302C55.806 12.7185 55.5124 13.5242 55.2761 14.1472C54.7175 15.6153 54.3236 16.5105 54.0944 16.8328C53.8653 17.155 53.4714 17.3162 52.9128 17.3162C52.7767 17.3162 52.6711 17.3108 52.5959 17.3C52.5243 17.2893 52.4348 17.2696 52.3273 17.241V16.3601C52.4956 16.4067 52.6174 16.4353 52.6926 16.446C52.7678 16.4568 52.834 16.4622 52.8913 16.4622C53.0703 16.4622 53.201 16.4317 53.2834 16.3708C53.3693 16.3136 53.441 16.2419 53.4982 16.156C53.5161 16.1274 53.5806 15.9806 53.6916 15.7156C53.8026 15.4506 53.8832 15.2537 53.9333 15.1248L51.8063 9.20581H52.9021L54.4436 13.8894L55.9958 9.20581ZM59.4193 9.20581V13.0247C59.4193 13.3183 59.4659 13.5582 59.559 13.7444C59.7309 14.0881 60.0513 14.26 60.5204 14.26C61.1936 14.26 61.6519 13.9592 61.8954 13.3577C62.0279 13.0354 62.0941 12.5932 62.0941 12.031V9.20581H63.0609V14.9583H62.1479L62.1586 14.1096C62.0333 14.328 61.8775 14.5125 61.6913 14.6628C61.3225 14.9636 60.8749 15.114 60.3485 15.114C59.5285 15.114 58.97 14.8401 58.6728 14.2922C58.5116 13.9986 58.4311 13.6065 58.4311 13.116V9.20581H59.4193ZM65.7379 12.1492C65.7379 12.7651 65.8686 13.2807 66.13 13.696C66.3914 14.1114 66.8103 14.3191 67.3868 14.3191C67.8344 14.3191 68.2014 14.1275 68.4879 13.7444C68.7779 13.3577 68.9229 12.8044 68.9229 12.0847C68.9229 11.3578 68.7743 10.8207 68.4771 10.4734C68.1799 10.1225 67.8129 9.94702 67.3761 9.94702C66.8891 9.94702 66.4934 10.1332 66.1891 10.5056C65.8883 10.878 65.7379 11.4259 65.7379 12.1492ZM67.1935 9.10376C67.6339 9.10376 68.0027 9.19686 68.2999 9.38306C68.4718 9.49048 68.6669 9.67847 68.8854 9.94702V7.04126H69.8146V14.9583H68.9444V14.158C68.7188 14.5125 68.4521 14.7685 68.1441 14.926C67.8362 15.0836 67.4835 15.1624 67.086 15.1624C66.4451 15.1624 65.8901 14.8938 65.421 14.3567C64.9519 13.816 64.7174 13.0981 64.7174 12.2029C64.7174 11.365 64.9304 10.6399 65.3565 10.0276C65.7862 9.4117 66.3985 9.10376 67.1935 9.10376ZM72.5398 13.4275C72.5398 13.7068 72.6419 13.927 72.846 14.0881C73.0501 14.2493 73.2918 14.3298 73.5711 14.3298C73.9113 14.3298 74.2407 14.2511 74.5594 14.0935C75.0965 13.8321 75.365 13.4042 75.365 12.8098V12.031C75.2469 12.1062 75.0947 12.1689 74.9085 12.219C74.7223 12.2691 74.5397 12.3049 74.3606 12.3264L73.7752 12.4016C73.4243 12.4482 73.1611 12.5216 72.9856 12.6218C72.6884 12.7901 72.5398 13.0587 72.5398 13.4275ZM74.8816 11.4724C75.1036 11.4438 75.2522 11.3507 75.3274 11.1931C75.3704 11.1072 75.3919 10.9836 75.3919 10.8225C75.3919 10.4931 75.2737 10.255 75.0374 10.1082C74.8047 9.95776 74.4699 9.88257 74.033 9.88257C73.5281 9.88257 73.1701 10.0186 72.9588 10.2908C72.8406 10.4412 72.7636 10.665 72.7278 10.9622H71.8255C71.8434 10.2532 72.0726 9.76082 72.513 9.48511C72.957 9.20581 73.4708 9.06616 74.0545 9.06616C74.7313 9.06616 75.2809 9.19507 75.7034 9.45288C76.1224 9.71069 76.3318 10.1117 76.3318 10.656V13.97C76.3318 14.0702 76.3515 14.1508 76.3909 14.2117C76.4339 14.2725 76.5216 14.303 76.6541 14.303C76.6971 14.303 76.7454 14.3012 76.7991 14.2976C76.8528 14.2904 76.9101 14.2815 76.971 14.2708V14.9851C76.8206 15.0281 76.706 15.0549 76.6272 15.0657C76.5485 15.0764 76.441 15.0818 76.305 15.0818C75.972 15.0818 75.7303 14.9636 75.5799 14.7273C75.5011 14.602 75.4456 14.4247 75.4134 14.1956C75.2164 14.4534 74.9336 14.6772 74.5647 14.8669C74.1959 15.0567 73.7895 15.1516 73.3455 15.1516C72.812 15.1516 72.3751 14.9905 72.035 14.6682C71.6984 14.3424 71.5301 13.936 71.5301 13.449C71.5301 12.9154 71.6966 12.5019 72.0296 12.2083C72.3626 11.9146 72.7994 11.7338 73.3401 11.6658L74.8816 11.4724Z" fill="#282828"/>
<rect x="0.3" y="0.3" width="96.4" height="24.4" rx="7.7" stroke="#282828" stroke-width="0.6"/>
<defs>
<clipPath id="clip0_1958_7202">
<rect width="15" height="20" fill="white" transform="translate(19 1.45825)"/>
</clipPath>
</defs>
</svg>
