<?xml version="1.0" encoding="utf-8"?>
<!-- Generator: Adobe Illustrator 26.0.0, SVG Export Plug-In . SVG Version: 6.00 Build 0)  -->
<svg version="1.1" id="Capa_1" xmlns="http://www.w3.org/2000/svg" xmlns:xlink="http://www.w3.org/1999/xlink" x="0px" y="0px"
	 viewBox="0 0 123.1 121.7" style="enable-background:new 0 0 123.1 121.7;" xml:space="preserve">
<style type="text/css">
	.st0{fill:#817E81;}
</style>
<path class="st0" d="M86.5,77.2h-5.4l-1.9-1.9c6.7-7.8,10.8-18,10.8-29C90,21.7,70,1.7,45.4,1.7c-24.7,0-44.6,20-44.6,44.6
	s20,44.6,44.6,44.6c11,0,21.2-4,29-10.8l1.9,1.9v5.4l34.2,34.3l10.2-10.2L86.5,77.2z M45.4,77.2c-17.1,0-30.9-13.8-30.9-30.9
	s13.8-30.9,30.9-30.9s30.9,13.8,30.9,30.9C76.2,63.4,62.4,77.2,45.4,77.2z"/>
</svg>
