<?xml version="1.0" encoding="utf-8"?>
<!-- Generator: Adobe Illustrator 26.0.0, SVG Export Plug-In . SVG Version: 6.00 Build 0)  -->
<svg version="1.1" id="Capa_1" xmlns="http://www.w3.org/2000/svg" xmlns:xlink="http://www.w3.org/1999/xlink" x="0px" y="0px"
	 viewBox="0 0 25 32.1" style="enable-background:new 0 0 25 32.1;" xml:space="preserve">
<style type="text/css">
	.st0{fill:#FF0000;}
</style>
<path class="st0" d="M12.9,20.7H3.8c-0.3,0-0.6,0.3-0.6,0.6s0.2,0.6,0.6,0.6h9.1c0.3,1.4,1.5,2.5,2.9,2.5s2.7-1.1,2.9-2.5h2.9
	c0.3,0,0.6-0.3,0.6-0.6s-0.2-0.6-0.6-0.6l-2.9,0c-0.3-1.4-1.5-2.5-2.9-2.5C14.4,18.2,13.2,19.3,12.9,20.7L12.9,20.7z M17.7,21.3
	c0,1-0.8,1.9-1.8,1.9c-1,0-1.8-0.9-1.8-1.9c0-1,0.8-1.9,1.8-1.9S17.7,20.2,17.7,21.3z"/>
<path class="st0" d="M6.7,13.8H3.8c-0.3,0-0.6,0.3-0.6,0.6S3.5,15,3.8,15h2.9c0.3,1.4,1.5,2.5,2.9,2.5c1.4,0,2.7-1.1,2.9-2.5h9.1
	c0.3,0,0.6-0.3,0.6-0.6s-0.2-0.6-0.6-0.6h-9.1c-0.3-1.4-1.5-2.5-2.9-2.5C8.2,11.3,7,12.4,6.7,13.8L6.7,13.8z M11.5,14.4
	c0,1-0.8,1.9-1.8,1.9c-1,0-1.8-0.9-1.8-1.9c0-1,0.8-1.9,1.8-1.9S11.5,13.3,11.5,14.4z"/>
<path class="st0" d="M15.8,4.4c-1.4,0-2.7,1.1-2.9,2.5H3.8c-0.3,0-0.6,0.3-0.6,0.6c0,0.3,0.2,0.6,0.6,0.6h9.1
	c0.3,1.4,1.5,2.5,2.9,2.5c1.4,0,2.7-1.1,2.9-2.5h2.9c0.3,0,0.6-0.3,0.6-0.6c0-0.3-0.2-0.6-0.6-0.6h-2.9C18.5,5.5,17.3,4.4,15.8,4.4
	L15.8,4.4z M17.7,7.5c0,1-0.8,1.9-1.8,1.9S14,8.5,14,7.5c0-1,0.8-1.9,1.8-1.9C16.8,5.6,17.7,6.4,17.7,7.5z"/>
</svg>
