<?xml version="1.0" encoding="utf-8"?>
<!-- Generator: Adobe Illustrator 26.0.0, SVG Export Plug-In . SVG Version: 6.00 Build 0)  -->
<svg version="1.1" id="Capa_1" xmlns="http://www.w3.org/2000/svg" xmlns:xlink="http://www.w3.org/1999/xlink" x="0px" y="0px"
	 viewBox="0 0 22.6 22" style="enable-background:new 0 0 22.6 22;" xml:space="preserve">
<style type="text/css">
	.st0{fill:#FF0000;}
</style>
<path class="st0" d="M11,21.9C4.9,21.9,0,17,0,11S4.9,0,11,0c6.1,0,11,4.9,11,11S17.1,21.9,11,21.9z M11,2.1c-4.9,0-8.9,4-8.9,8.9
	c0,4.9,4,8.9,8.9,8.9c4.9,0,8.9-4,8.9-8.9C19.9,6.1,15.9,2.1,11,2.1z"/>
<path class="st0" d="M8.4,16.1c0-0.2,0.1-0.5,0.2-0.8l1.3-4.7c0-0.1,0-0.1,0-0.2c0-0.1,0-0.1,0-0.2c0-0.3-0.1-0.5-0.3-0.5
	c-0.2-0.1-0.5-0.1-1-0.1V8.9c0.4,0,1-0.1,1.7-0.2c0.8-0.1,1.3-0.2,1.6-0.2l0.9-0.2l-1.6,6c-0.1,0.5-0.2,0.9-0.3,1.1
	c-0.1,0.5-0.2,0.8-0.2,1c0,0.2,0,0.2,0.1,0.3c0.1,0,0.1,0.1,0.2,0.1c0.2,0,0.5-0.2,0.8-0.5c0.3-0.4,0.6-0.7,0.8-1.1l0.5,0.3
	c-0.7,1-1.2,1.7-1.6,2c-0.6,0.6-1.2,0.9-1.9,0.9c-0.4,0-0.7-0.1-1-0.4c-0.3-0.2-0.5-0.6-0.5-1.1C8.2,16.7,8.3,16.4,8.4,16.1
	L8.4,16.1z M13.3,4.1c0.3,0.3,0.4,0.6,0.4,1c0,0.4-0.1,0.7-0.4,1c-0.3,0.3-0.6,0.4-1,0.4c-0.4,0-0.7-0.1-1-0.4
	c-0.3-0.3-0.4-0.6-0.4-1c0-0.4,0.1-0.7,0.4-1c0.3-0.3,0.6-0.4,1-0.4C12.7,3.6,13.1,3.8,13.3,4.1z"/>
</svg>
