<?xml version="1.0" encoding="utf-8"?>
<!-- Generator: Adobe Illustrator 26.0.0, SVG Export Plug-In . SVG Version: 6.00 Build 0)  -->
<svg version="1.1" id="Capa_1" xmlns="http://www.w3.org/2000/svg" xmlns:xlink="http://www.w3.org/1999/xlink" x="0px" y="0px"
	 viewBox="0 0 22.2 26.8" style="enable-background:new 0 0 22.2 26.8;" xml:space="preserve">
<style type="text/css">
	.st0{clip-path:url(#SVGID_00000021112000187289585230000004592786390191802539_);}
	.st1{fill:#FF0000;}
</style>
<g>
	<defs>
		<rect id="SVGID_1_" y="3.1" width="20" height="24.9"/>
	</defs>
	<clipPath id="SVGID_00000029762816765828701300000016959785310431775118_">
		<use xlink:href="#SVGID_1_"  style="overflow:visible;"/>
	</clipPath>
	<g style="clip-path:url(#SVGID_00000029762816765828701300000016959785310431775118_);">
		<path class="st1" d="M17,3.1c1.7,0,3,1.3,3,3V20c0,1.6-1.3,3-3,3H3c-1.7,0-3-1.3-3-3V6.1c0-1.6,1.3-3,3-3H17z M17,5.1H3
			c-0.6,0-1,0.4-1,1V20c0,0.5,0.4,1,1,1h14c0.6,0,1-0.4,1-1V6.1C18,5.5,17.6,5.1,17,5.1z M15.7,13.4L15.7,13.4
			c0.4,0.4,0.5,1,0.2,1.4l-0.1,0.1l-4.2,4.2c-0.4,0.4-0.9,0.4-1.3,0.1l-0.1-0.1L8,17c-0.4-0.4-0.4-1,0-1.4c0.4-0.4,0.9-0.4,1.3-0.1
			l0.1,0.1l1.4,1.4l3.5-3.5C14.7,13.1,15.3,13.1,15.7,13.4z M10,11.1c0.6,0,1,0.4,1,1c0,0.5-0.4,0.9-0.9,1L10,13H5c-0.6,0-1-0.4-1-1
			c0-0.5,0.4-0.9,0.9-1l0.1,0H10z M15,7.1c0.6,0,1,0.4,1,1c0,0.5-0.4,0.9-0.9,1l-0.1,0H5c-0.6,0-1-0.4-1-1c0-0.5,0.4-0.9,0.9-1
			l0.1,0H15z"/>
	</g>
</g>
</svg>
