<?xml version="1.0" encoding="utf-8"?>
<!-- Generator: Adobe Illustrator 26.0.0, SVG Export Plug-In . SVG Version: 6.00 Build 0)  -->
<svg version="1.1" id="Capa_1" xmlns="http://www.w3.org/2000/svg" xmlns:xlink="http://www.w3.org/1999/xlink" x="0px" y="0px"
	 viewBox="0 0 25.8 25" style="enable-background:new 0 0 25.8 25;" xml:space="preserve">
<style type="text/css">
	.st0{fill:none;stroke:#FF0000;stroke-width:2;stroke-linecap:round;stroke-linejoin:round;}
</style>
<path class="st0" d="M12,15.6c1.7,0,3-1.3,3-3s-1.3-3-3-3s-3,1.3-3,3S10.3,15.6,12,15.6z"/>
<path class="st0" d="M19.4,15.6c-0.1,0.3-0.2,0.6-0.1,1c0.1,0.3,0.2,0.6,0.4,0.9l0.1,0.1c0.2,0.2,0.3,0.4,0.4,0.6
	c0.1,0.2,0.2,0.5,0.2,0.8c0,0.3-0.1,0.5-0.2,0.8c-0.1,0.2-0.2,0.5-0.4,0.6c-0.2,0.2-0.4,0.3-0.6,0.4c-0.2,0.1-0.5,0.2-0.8,0.2
	s-0.5-0.1-0.8-0.2c-0.2-0.1-0.5-0.2-0.6-0.4l-0.1-0.1c-0.2-0.2-0.5-0.4-0.9-0.4c-0.3-0.1-0.7,0-1,0.1c-0.3,0.1-0.5,0.3-0.7,0.6
	c-0.2,0.3-0.3,0.6-0.3,0.9v0.2c0,0.5-0.2,1-0.6,1.4c-0.4,0.4-0.9,0.6-1.4,0.6s-1-0.2-1.4-0.6c-0.4-0.4-0.6-0.9-0.6-1.4v-0.1
	c0-0.3-0.1-0.6-0.3-0.9C9.6,20.3,9.3,20.1,9,20c-0.3-0.1-0.6-0.2-1-0.1c-0.3,0.1-0.6,0.2-0.9,0.4l-0.1,0.1c-0.2,0.2-0.4,0.3-0.6,0.4
	c-0.2,0.1-0.5,0.2-0.8,0.2c-0.3,0-0.5-0.1-0.8-0.2c-0.2-0.1-0.5-0.2-0.6-0.4C4.1,20.2,4,20,3.9,19.7c-0.1-0.2-0.2-0.5-0.2-0.8
	s0.1-0.5,0.2-0.8c0.1-0.2,0.2-0.5,0.4-0.6l0.1-0.1c0.2-0.2,0.4-0.5,0.4-0.9c0.1-0.3,0-0.7-0.1-1c-0.1-0.3-0.3-0.5-0.6-0.7
	s-0.6-0.3-0.9-0.3H3c-0.5,0-1-0.2-1.4-0.6C1.2,13.7,1,13.2,1,12.7s0.2-1,0.6-1.4C2,10.9,2.5,10.7,3,10.7h0.1c0.3,0,0.7-0.1,0.9-0.3
	c0.3-0.2,0.5-0.5,0.6-0.8c0.1-0.3,0.2-0.6,0.1-1C4.7,8.3,4.5,8,4.3,7.8L4.2,7.7C4,7.6,3.9,7.3,3.8,7.1C3.7,6.9,3.6,6.6,3.6,6.3
	c0-0.3,0.1-0.5,0.2-0.8C3.9,5.3,4,5.1,4.2,4.9c0.2-0.2,0.4-0.3,0.6-0.4c0.2-0.1,0.5-0.2,0.8-0.2s0.5,0.1,0.8,0.2
	C6.6,4.6,6.9,4.7,7,4.9L7.1,5C7.3,5.2,7.6,5.4,8,5.4c0.3,0.1,0.7,0,1-0.1H9C9.3,5.2,9.5,5,9.7,4.7C9.9,4.4,10,4.1,10,3.8V3.6
	c0-0.5,0.2-1,0.6-1.4C11,1.9,11.5,1.7,12,1.7s1,0.2,1.4,0.6C13.8,2.6,14,3.1,14,3.6v0.1c0,0.3,0.1,0.6,0.3,0.9
	c0.2,0.3,0.4,0.5,0.7,0.6c0.3,0.1,0.6,0.2,1,0.1s0.6-0.2,0.9-0.4l0.1-0.1c0.2-0.2,0.4-0.3,0.6-0.4c0.2-0.1,0.5-0.2,0.8-0.2
	s0.5,0.1,0.8,0.2c0.2,0.1,0.5,0.2,0.6,0.4C19.9,5,20,5.3,20.1,5.5c0.1,0.2,0.2,0.5,0.2,0.8c0,0.3-0.1,0.5-0.2,0.8
	c-0.1,0.2-0.2,0.5-0.4,0.6l-0.1,0.1c-0.2,0.2-0.4,0.5-0.4,0.9c-0.1,0.3,0,0.7,0.1,1v0.1c0.1,0.3,0.3,0.5,0.6,0.7
	c0.3,0.2,0.6,0.3,0.9,0.3H21c0.5,0,1,0.2,1.4,0.6c0.4,0.4,0.6,0.9,0.6,1.4s-0.2,1-0.6,1.4c-0.4,0.4-0.9,0.6-1.4,0.6h-0.1
	c-0.3,0-0.6,0.1-0.9,0.3C19.7,15,19.5,15.3,19.4,15.6L19.4,15.6z"/>
</svg>
