<?xml version="1.0" encoding="utf-8"?>
<!-- Generator: Adobe Illustrator 26.0.0, SVG Export Plug-In . SVG Version: 6.00 Build 0)  -->
<svg version="1.1" id="Capa_1" xmlns="http://www.w3.org/2000/svg" xmlns:xlink="http://www.w3.org/1999/xlink" x="0px" y="0px"
	 viewBox="0 0 23.8 25" style="enable-background:new 0 0 23.8 25;" xml:space="preserve">
<style type="text/css">
	.st0{fill:none;stroke:#FF0000;stroke-width:2;stroke-linecap:round;stroke-linejoin:round;}
</style>
<path class="st0" d="M14,2.9H6c-0.5,0-1,0.2-1.4,0.6C4.2,3.9,4,4.4,4,4.9v15.9c0,0.5,0.2,1,0.6,1.4C5,22.6,5.5,22.8,6,22.8h12
	c0.5,0,1-0.2,1.4-0.6c0.4-0.4,0.6-0.9,0.6-1.4V8.9L14,2.9z"/>
<path class="st0" d="M14,2.9v6h6"/>
<path class="st0" d="M16,13.9H8"/>
<path class="st0" d="M16,17.8H8"/>
<path class="st0" d="M10,9.9H9H8"/>
</svg>
