<?xml version="1.0" encoding="utf-8"?>
<!-- Generator: Adobe Illustrator 26.0.0, SVG Export Plug-In . SVG Version: 6.00 Build 0)  -->
<svg version="1.1" id="Capa_1" xmlns="http://www.w3.org/2000/svg" xmlns:xlink="http://www.w3.org/1999/xlink" x="0px" y="0px"
	 viewBox="0 0 22.1 22" style="enable-background:new 0 0 22.1 22;" xml:space="preserve">
<style type="text/css">
	.st0{fill:#FF0000;}
</style>
<path class="st0" d="M0,21.5h21V0.6H0V21.5z M1.8,19.7v-3.5h17.5v3.5H1.8z M10.5,12.8c1.1,0,2.1,0.7,2.5,1.7H8
	C8.4,13.5,9.4,12.8,10.5,12.8L10.5,12.8z M19.2,2.3v12.2h-4.5c-0.4-1.9-2-3.3-3.9-3.4L7.6,7.8L6.4,9l2.4,2.4
	c-1.3,0.6-2.3,1.7-2.5,3.1H1.8V2.3L19.2,2.3z"/>
<path class="st0" d="M10.5,5.9c1.7,0,3.2,0.6,4.4,1.6l1.1-1c-1.5-1.3-3.4-2-5.5-2c-2.1,0-4,0.7-5.5,2l1.1,1
	C7.3,6.5,8.8,5.9,10.5,5.9z"/>
</svg>
