<svg width="19" height="20" viewBox="0 0 19 20" fill="none" xmlns="http://www.w3.org/2000/svg">
<path d="M14.2468 5.6143L7.79405 11.8618L4.76408 8.928C4.37132 8.54773 3.72609 8.54773 3.30516 8.928C2.88441 9.30827 2.91239 9.93298 3.30516 10.3405L7.06451 13.9803C7.26099 14.1706 7.51344 14.2791 7.7939 14.2791C8.07453 14.2791 8.327 14.1706 8.52328 13.9803L15.7054 7.02658C16.0982 6.64631 16.0982 6.0216 15.7054 5.61406C15.3131 5.20669 14.6397 5.23397 14.2469 5.61425L14.2468 5.6143Z" fill="#FF0000"/>
<path d="M13.3659 0.340675H5.61409C2.51731 0.340675 0 2.84692 0 5.93009V13.6677C0 16.7509 2.51731 19.2572 5.61409 19.2572H13.3859C16.4827 19.2572 19 16.7509 19 13.6677V5.93009C18.9801 2.84692 16.4628 0.340675 13.3659 0.340675ZM17.5216 13.6479C17.5216 15.9154 15.6636 17.7852 13.3659 17.7852H5.61409C3.33649 17.7852 1.45846 15.9354 1.45846 13.6479V5.93009C1.45846 3.6625 3.31644 1.79273 5.61409 1.79273H13.3859C15.6635 1.79273 17.5415 3.64253 17.5415 5.93009V13.6479H17.5216Z" fill="#FF0000"/>
</svg>
