<svg width="217" height="67" viewBox="0 0 217 67" fill="none" xmlns="http://www.w3.org/2000/svg">
<path d="M59.4751 44.6203H45.3942L52.4348 32.5709H66.5157L59.4751 44.6203Z" fill="white"/>
<path d="M73.5564 44.6203H87.6376L80.5967 32.5709H66.5157L73.5564 44.6203Z" fill="white"/>
<path d="M73.5564 20.5228L66.5158 8.47437L59.4752 20.5228L66.5158 32.5709L73.5564 20.5228Z" fill="white"/>
<path d="M93.9599 39.4913H99.5996V37.4706H93.9599V34.9843H100.304V32.9639H93.9599H91.5699V34.9843V42.5999V44.6203H93.9599H100.471V42.5999H93.9599V39.4913Z" fill="white"/>
<path d="M93.7957 22.3564L96.3012 31.0205H96.4004H98.4976H98.5968L101.103 22.3564V31.0205H103.328V19.365H102.114H101.065H99.9173L97.4491 27.5459L94.9806 19.365H93.8333H92.7839H91.5699V31.0205H93.7957V22.3564Z" fill="white"/>
<path d="M148.103 19.365H145.726V31.0205H148.103V19.365Z" fill="white"/>
<path d="M150.038 32.9639H147.662V44.6203H150.038V32.9639Z" fill="white"/>
<path d="M171.606 19.365H169.229V31.0205H171.606V19.365Z" fill="white"/>
<path d="M106.652 19.365H104.276V31.0205H106.652V19.365Z" fill="white"/>
<path d="M165.908 23.911H161.185V19.365H158.847V31.0205H161.185V25.9317H165.908V31.0205H168.246V19.365H165.908V23.911Z" fill="white"/>
<path d="M110.167 31.0205H112.593V21.3854H115.476V19.365H112.593H110.167H107.285V21.3854H110.167V31.0205Z" fill="white"/>
<path d="M131.842 44.6203H134.267V34.9843H137.15V32.9639H134.267H131.842H128.958V34.9843H131.842V44.6203Z" fill="white"/>
<path d="M130.219 31.3451C133.246 31.3451 134.926 29.984 134.926 27.3821V19.365H132.55V27.5945C132.55 28.5967 131.694 29.434 130.219 29.434C128.433 29.434 127.907 28.4454 127.907 27.5945V19.365H125.569V27.3821C125.569 30.1834 127.33 31.3451 130.219 31.3451Z" fill="white"/>
<path d="M112.26 39.4913H117.901V37.4706H112.26V34.9843H118.604V32.9639H112.26H109.87V34.9843V42.5999V44.6203H112.26H118.771V42.5999H112.26V39.4913Z" fill="white"/>
<path d="M138.217 31.0204H141.622C143.842 31.0204 145.164 29.7081 145.164 27.873C145.164 26.3906 144.076 25.117 142.891 24.8249C143.927 24.5646 144.762 23.5192 144.762 22.2325C144.762 20.5149 143.475 19.3646 141.084 19.3646H138.217H135.777H135.766V31.0204H135.777H138.217ZM140.913 29.259H138.125V25.8787H140.884C141.878 25.8787 142.718 26.4422 142.718 27.5733C142.718 28.5285 141.956 29.259 140.913 29.259ZM141.088 21.2171C141.737 21.2171 142.464 21.8124 142.464 22.598C142.464 23.2955 141.956 24.0651 140.956 24.0651H138.125V21.2171H141.088Z" fill="white"/>
<path d="M144.859 39.0255C145.872 38.7232 146.956 37.8266 146.956 36.209C146.956 34.1356 145.536 32.9475 143.117 32.9475H140.123H137.755H137.733V44.6033H140.123V40.0113H142.149C143.376 40.0113 144.046 40.64 144.247 41.4698C144.468 42.3878 144.411 43.7514 144.647 44.6033H147.05C146.816 43.7102 146.678 42.4984 146.625 41.5404C146.54 39.9627 145.7 39.3324 144.859 39.0255ZM140.123 38.1412V34.9676H142.998C143.969 34.9676 144.617 35.6414 144.617 36.561C144.617 37.208 144.042 38.1412 143.069 38.1412H140.123Z" fill="white"/>
<path d="M103.627 32.9639H101.238V42.5999V44.6203H103.627H109.188V42.5999H103.627V32.9639Z" fill="white"/>
<path d="M119.465 26.0947C121.38 26.4249 122.468 26.7744 122.468 27.9027C122.468 28.6675 121.702 29.3924 120.114 29.3924C118.525 29.3924 117.711 28.5002 117.711 27.4404H115.42C115.42 29.4696 116.75 31.3214 120.215 31.3214C123.517 31.3214 124.948 29.5944 124.948 27.6266C124.948 25.7883 123.73 24.6242 121.55 24.2013C119.457 23.7944 118.019 23.7062 118.019 22.3967C118.019 21.4979 118.853 20.9647 120.134 20.9647C121.496 20.9647 122.278 21.6252 122.278 22.7446H124.586C124.586 20.9035 123.176 19.0104 120.038 19.0104C117.875 19.0104 115.63 20.2442 115.63 22.5461C115.63 24.4827 117.07 25.6815 119.465 26.0947Z" fill="white"/>
<path d="M152.723 26.0947C154.638 26.4249 155.726 26.7744 155.726 27.9027C155.726 28.6675 154.961 29.3924 153.373 29.3924C151.784 29.3924 150.969 28.5002 150.969 27.4404H148.68C148.68 29.4696 150.008 31.3214 153.475 31.3214C156.777 31.3214 158.207 29.5944 158.207 27.6266C158.207 25.7883 156.989 24.6242 154.81 24.2013C152.715 23.7944 151.278 23.7062 151.278 22.3967C151.278 21.4979 152.112 20.9647 153.393 20.9647C154.754 20.9647 155.537 21.6252 155.537 22.7446H157.845C157.845 20.9035 156.436 19.0104 153.298 19.0104C151.134 19.0104 148.889 20.2442 148.889 22.5461C148.889 24.4827 150.329 25.6815 152.723 26.0947Z" fill="white"/>
<path d="M124.149 42.819C122.227 42.819 121.104 40.9602 121.104 38.7441C121.104 36.5276 122.186 34.6657 124.149 34.6657C125.609 34.6657 126.357 35.5611 126.68 36.66H129.154C128.749 34.3771 126.944 32.6838 124.081 32.6838C120.471 32.6838 118.646 35.4126 118.646 38.7778C118.646 42.1433 120.545 44.8715 124.081 44.8715C126.91 44.8715 128.82 43.2466 129.17 40.7566H126.68C126.357 41.9274 125.58 42.819 124.149 42.819Z" fill="white"/>
<path d="M156.119 42.819C154.197 42.819 153.074 40.9602 153.074 38.7441C153.074 36.5276 154.156 34.6657 156.119 34.6657C157.578 34.6657 158.327 35.5611 158.651 36.66H161.124C160.718 34.3771 158.913 32.6838 156.051 32.6838C152.441 32.6838 150.616 35.4126 150.616 38.7778C150.616 42.1433 152.516 44.8715 156.05 44.8715C158.879 44.8715 160.789 43.2466 161.139 40.7566H158.649C158.327 41.9274 157.55 42.819 156.119 42.819Z" fill="white"/>
<path d="M45.4481 58.1926H46.3645L47.1125 56.2068H49.936L50.6652 58.1926H51.647L49.0384 51.5968H48.0566L45.4481 58.1926ZM48.5239 52.3916H48.5424L49.655 55.4681H47.3925L48.5239 52.3916Z" fill="white"/>
<path d="M52.5324 58.1925H53.4207V51.5971H52.5324V58.1925Z" fill="white"/>
<path d="M55.9929 54.6361V52.3361H58.1995C59.0317 52.3361 59.387 52.8164 59.387 53.4631C59.387 54.4234 58.6764 54.6361 57.8445 54.6361H55.9929ZM55.1046 58.1925H55.9926V55.3751H58.1616C59.0215 55.3751 59.1807 55.92 59.2741 56.567C59.4049 57.2134 59.2649 57.925 59.5172 58.1925H60.5085C60.1344 57.7397 60.172 57.0192 60.1159 56.3729C60.0505 55.7265 59.8917 55.1627 59.1156 55.0149V54.9966C59.9197 54.7748 60.2751 54.1192 60.2751 53.3244C60.2751 52.2715 59.499 51.5971 58.2461 51.5971H55.1046V58.1925Z" fill="white"/>
<path d="M61.7012 58.1925H66.3387V57.4541H62.5896V55.1718H66.058V54.4328H62.5896V52.3361H66.3107V51.5971H61.7012V58.1925Z" fill="white"/>
<path d="M69.5992 58.1926H70.5156L71.2633 56.2068H74.0868L74.8163 58.1926H75.7981L73.1895 51.5968H72.2078L69.5992 58.1926ZM72.675 52.3916H72.6939L73.8064 55.4681H71.544L72.675 52.3916Z" fill="white"/>
<path d="M82.2279 53.5832C82.0221 52.1792 80.8723 51.4402 79.479 51.4402C77.422 51.4402 76.319 53.0014 76.319 54.9138C76.319 56.8349 77.3288 58.3501 79.4044 58.3501C81.0872 58.3501 82.1252 57.3524 82.2936 55.7079H81.4053C81.3214 56.7983 80.648 57.6111 79.4793 57.6111C77.8803 57.6111 77.2073 56.3546 77.2073 54.8488C77.2073 53.4726 77.8803 52.1792 79.4701 52.1792C80.3954 52.1792 81.153 52.6504 81.3402 53.5832H82.2279Z" fill="white"/>
<path d="M83.2164 54.8951C83.2164 56.6867 84.2916 58.3498 86.4137 58.3498C88.5361 58.3498 89.6111 56.6867 89.6111 54.8951C89.6111 53.1029 88.5358 51.4398 86.4137 51.4398C84.2913 51.4401 83.2164 53.1029 83.2164 54.8951ZM84.1044 54.8951C84.1044 53.5646 84.787 52.1792 86.4137 52.1792C88.0405 52.1792 88.7231 53.5646 88.7231 54.8951C88.7231 56.2254 88.0405 57.6108 86.4137 57.6108C84.787 57.6108 84.1044 56.2254 84.1044 54.8951Z" fill="white"/>
<path d="M90.8799 58.1925H91.7211V52.8996H91.7399L95.2272 58.1925H96.1997V51.5971H95.3583V56.9458H95.3395L91.8241 51.5971H90.8799V58.1925Z" fill="white"/>
<path d="M97.8332 58.1926H100.124C102.349 58.1926 103.331 56.9458 103.331 54.7379C103.331 52.6128 102.181 51.5968 100.124 51.5968H97.8332V58.1926ZM98.7212 52.3361H100.217C101.853 52.3361 102.442 53.2876 102.442 54.858C102.442 57.2878 100.806 57.4542 100.199 57.4542H98.7212V52.3361Z" fill="white"/>
<path d="M104.645 58.1925H105.533V51.5971H104.645V58.1925Z" fill="white"/>
<path d="M112.799 53.5832C112.593 52.1792 111.443 51.4402 110.05 51.4402C107.993 51.4402 106.89 53.0014 106.89 54.9138C106.89 56.8349 107.9 58.3501 109.975 58.3501C111.659 58.3501 112.697 57.3524 112.865 55.7079H111.977C111.893 56.7983 111.219 57.6111 110.051 57.6111C108.451 57.6111 107.778 56.3546 107.778 54.8488C107.778 53.4726 108.451 52.1792 110.041 52.1792C110.966 52.1792 111.724 52.6504 111.911 53.5832H112.799Z" fill="white"/>
<path d="M114.198 58.1925H115.087V51.5971H114.198V58.1925Z" fill="white"/>
<path d="M116.397 54.8951C116.397 56.6867 117.472 58.3498 119.594 58.3498C121.717 58.3498 122.792 56.6867 122.792 54.8951C122.792 53.1029 121.717 51.4398 119.594 51.4398C117.472 51.4401 116.397 53.1029 116.397 54.8951ZM117.286 54.8951C117.286 53.5646 117.968 52.1792 119.595 52.1792C121.221 52.1792 121.904 53.5646 121.904 54.8951C121.904 56.2254 121.221 57.6108 119.595 57.6108C117.968 57.6108 117.286 56.2254 117.286 54.8951Z" fill="white"/>
<path d="M124.06 58.1925H124.902V52.8996H124.921L128.408 58.1925H129.38V51.5971H128.539V56.9458H128.52L125.005 51.5971H124.06V58.1925Z" fill="white"/>
<path d="M130.22 58.1926H131.136L131.884 56.2068H134.707L135.436 58.1926H136.418L133.809 51.5968H132.828L130.22 58.1926ZM133.295 52.3916H133.313L134.426 55.4681H132.164L133.295 52.3916Z" fill="white"/>
<path d="M137.266 58.1926H139.557C141.782 58.1926 142.764 56.9458 142.764 54.7379C142.764 52.6128 141.614 51.5968 139.557 51.5968H137.266V58.1926ZM138.154 52.3361H139.65C141.286 52.3361 141.875 53.2876 141.875 54.858C141.875 57.2878 140.239 57.4542 139.632 57.4542H138.154V52.3361Z" fill="white"/>
<path d="M143.667 54.8951C143.667 56.6867 144.743 58.3498 146.864 58.3498C148.987 58.3498 150.062 56.6867 150.062 54.8951C150.062 53.1029 148.987 51.4398 146.864 51.4398C144.743 51.4401 143.667 53.1029 143.667 54.8951ZM144.556 54.8951C144.556 53.5646 145.238 52.1792 146.865 52.1792C148.491 52.1792 149.174 53.5646 149.174 54.8951C149.174 56.2254 148.491 57.6108 146.865 57.6108C145.238 57.6108 144.556 56.2254 144.556 54.8951Z" fill="white"/>
</svg>
