<svg width="361" height="113" viewBox="0 0 361 113" fill="none" xmlns="http://www.w3.org/2000/svg">
<path d="M98.9425 75.2552H75.5175L87.2303 54.9331H110.655L98.9425 75.2552Z" fill="#D31E19"/>
<path d="M122.368 75.2552H145.793L134.08 54.9331H110.655L122.368 75.2552Z" fill="#D31E19"/>
<path d="M122.368 34.6131L110.655 14.2926L98.9426 34.6131L110.655 54.9331L122.368 34.6131Z" fill="#D31E19"/>
<path d="M156.311 66.6047H165.693V63.1966H156.311V59.0034H166.866V55.5959H156.311H152.335V59.0034V71.8476V75.2552H156.311H167.144V71.8476H156.311V66.6047Z" fill="black"/>
<path d="M156.038 37.7055L160.206 52.318H160.371H163.86H164.025L168.194 37.7055V52.318H171.897V32.6603H169.877H168.131H166.222L162.116 46.458L158.009 32.6603H156.101H154.355H152.335V52.318H156.038V37.7055Z" fill="black"/>
<path d="M246.383 32.6603H242.429V52.318H246.383V32.6603Z" fill="black"/>
<path d="M249.602 55.5959H245.649V75.2552H249.602V55.5959Z" fill="black"/>
<path d="M285.483 32.6603H281.528V52.318H285.483V32.6603Z" fill="black"/>
<path d="M177.426 32.6603H173.473V52.318H177.426V32.6603Z" fill="black"/>
<path d="M276.004 40.3274H268.147V32.6603H264.257V52.318H268.147V43.7356H276.004V52.318H279.893V32.6603H276.004V40.3274Z" fill="black"/>
<path d="M183.274 52.318H187.309V36.0679H192.105V32.6603H187.309H183.274H178.478V36.0679H183.274V52.318Z" fill="black"/>
<path d="M219.331 75.2552H223.366V59.0034H228.162V55.5959H223.366H219.331H214.534V59.0034H219.331V75.2552Z" fill="black"/>
<path d="M216.631 52.8655C221.667 52.8655 224.462 50.5699 224.462 46.1816V32.6603H220.509V46.5399C220.509 48.2301 219.085 49.6424 216.631 49.6424C213.66 49.6424 212.786 47.975 212.786 46.5399V32.6603H208.895V46.1816C208.895 50.9063 211.825 52.8655 216.631 52.8655Z" fill="black"/>
<path d="M186.754 66.6047H196.139V63.1966H186.754V59.0034H197.31V55.5959H186.754H182.78V59.0034V71.8476V75.2552H186.754H197.587V71.8476H186.754V66.6047Z" fill="black"/>
<path d="M229.937 52.318H235.602C239.295 52.318 241.494 50.1048 241.494 47.0097C241.494 44.5095 239.684 42.3616 237.713 41.8689C239.436 41.4298 240.825 39.6668 240.825 37.4966C240.825 34.5998 238.684 32.6598 234.707 32.6598H229.937H225.878H225.859V52.318H225.878H229.937ZM234.422 49.3473H229.784V43.6463H234.374C236.027 43.6463 237.424 44.5966 237.424 46.5042C237.425 48.1153 236.158 49.3473 234.422 49.3473ZM234.713 35.784C235.793 35.784 237.003 36.7881 237.003 38.1131C237.003 39.2894 236.157 40.5874 234.493 40.5874H229.784V35.784H234.713Z" fill="black"/>
<path d="M240.986 65.8191C242.671 65.3094 244.474 63.7972 244.474 61.0689C244.474 57.572 242.113 55.5682 238.088 55.5682H233.108H229.169H229.133V75.2265H233.108V67.4817H236.478C238.52 67.4817 239.634 68.5421 239.968 69.9416C240.335 71.4899 240.242 73.7898 240.633 75.2265H244.631C244.243 73.7201 244.013 71.6764 243.925 70.0606C243.783 67.3998 242.386 66.3368 240.986 65.8191ZM233.108 64.3277V58.9753H237.89C239.507 58.9753 240.584 60.1116 240.584 61.6626C240.584 62.7538 239.628 64.3277 238.009 64.3277H233.108Z" fill="black"/>
<path d="M172.393 55.5959H168.419V71.8476V75.2552H172.393H181.645V71.8476H172.393V55.5959Z" fill="black"/>
<path d="M198.741 44.0103C201.926 44.5674 203.736 45.1568 203.736 47.0597C203.736 48.3497 202.463 49.5722 199.822 49.5722C197.178 49.5722 195.823 48.0674 195.823 46.2799H192.013C192.013 49.7024 194.225 52.8256 199.99 52.8256C205.483 52.8256 207.862 49.9129 207.862 46.5941C207.862 43.4937 205.837 41.5303 202.21 40.817C198.728 40.1308 196.337 39.982 196.337 37.7735C196.337 36.2576 197.723 35.3583 199.854 35.3583C202.119 35.3583 203.421 36.4723 203.421 38.3603H207.261C207.261 35.2552 204.915 32.0623 199.695 32.0623C196.096 32.0623 192.362 34.1432 192.362 38.0254C192.361 41.2916 194.757 43.3135 198.741 44.0103Z" fill="black"/>
<path d="M254.07 44.0103C257.255 44.5674 259.065 45.1568 259.065 47.0597C259.065 48.3497 257.792 49.5722 255.15 49.5722C252.507 49.5722 251.151 48.0674 251.151 46.2799H247.343C247.343 49.7024 249.553 52.8256 255.32 52.8256C260.813 52.8256 263.192 49.9129 263.192 46.5941C263.192 43.4937 261.166 41.5303 257.54 40.817C254.056 40.1308 251.666 39.982 251.666 37.7735C251.666 36.2576 253.053 35.3583 255.184 35.3583C257.448 35.3583 258.75 36.4723 258.75 38.3603H262.589C262.589 35.2552 260.245 32.0623 255.026 32.0623C251.426 32.0623 247.691 34.1432 247.691 38.0254C247.69 41.2916 250.086 43.3135 254.07 44.0103Z" fill="black"/>
<path d="M206.534 72.217C203.337 72.217 201.467 69.0821 201.467 65.3445C201.467 61.6063 203.268 58.4661 206.534 58.4661C208.962 58.4661 210.207 59.9761 210.744 61.8295H214.86C214.187 57.9792 211.184 55.1233 206.42 55.1233C200.416 55.1233 197.379 59.7258 197.379 65.4013C197.379 71.0774 200.539 75.6788 206.42 75.6788C211.127 75.6788 214.304 72.9383 214.887 68.7387H210.744C210.207 70.7133 208.915 72.217 206.534 72.217Z" fill="black"/>
<path d="M259.719 72.217C256.521 72.217 254.653 69.0821 254.653 65.3445C254.653 61.6063 256.454 58.4661 259.719 58.4661C262.145 58.4661 263.392 59.9761 263.93 61.8295H268.045C267.37 57.9792 264.367 55.1233 259.605 55.1233C253.6 55.1233 250.563 59.7258 250.563 65.4013C250.563 71.0774 253.724 75.6788 259.603 75.6788C264.311 75.6788 267.487 72.9383 268.07 68.7387H263.928C263.392 70.7133 262.099 72.217 259.719 72.217Z" fill="black"/>
<path d="M75.6072 98.1456H77.1317L78.376 94.7965H83.0732L84.2863 98.1456H85.9196L81.58 87.0214H79.9467L75.6072 98.1456ZM80.7241 88.3619H80.7549L82.6057 93.5506H78.8419L80.7241 88.3619Z" fill="black"/>
<path d="M87.3926 98.1456H88.8705V87.0219H87.3926V98.1456Z" fill="black"/>
<path d="M93.1494 92.1474V88.2684H96.8203C98.2048 88.2684 98.7959 89.0784 98.7959 90.1691C98.7959 91.7886 97.6136 92.1474 96.2297 92.1474H93.1494ZM91.6716 98.1456H93.1489V93.3938H96.7572C98.1878 93.3938 98.4526 94.3128 98.6081 95.404C98.8256 96.4942 98.5927 97.6943 99.0124 98.1456H100.662C100.039 97.3818 100.102 96.1668 100.008 95.0766C99.8996 93.9865 99.6354 93.0356 98.3443 92.7863V92.7555C99.6821 92.3813 100.273 91.2757 100.273 89.9352C100.273 88.1594 98.9821 87.0219 96.8978 87.0219H91.6716V98.1456Z" fill="black"/>
<path d="M102.646 98.1456H110.361V96.9002H104.124V93.051H109.894V91.8046H104.124V88.2684H110.314V87.0219H102.646V98.1456Z" fill="black"/>
<path d="M115.785 98.1456H117.309L118.553 94.7965H123.25L124.464 98.1456H126.097L121.758 87.0214H120.124L115.785 98.1456ZM120.902 88.3619H120.933L122.784 93.5506H119.02L120.902 88.3619Z" fill="black"/>
<path d="M136.794 90.3716C136.452 88.0037 134.539 86.7572 132.221 86.7572C128.799 86.7572 126.964 89.3904 126.964 92.6157C126.964 95.8558 128.644 98.4113 132.097 98.4113C134.896 98.4113 136.623 96.7286 136.903 93.9551H135.425C135.286 95.7941 134.166 97.1649 132.221 97.1649C129.561 97.1649 128.442 95.0458 128.442 92.5062C128.442 90.185 129.561 88.0037 132.206 88.0037C133.745 88.0037 135.006 88.7983 135.317 90.3716H136.794Z" fill="black"/>
<path d="M138.438 92.5843C138.438 95.606 140.227 98.4108 143.757 98.4108C147.288 98.4108 149.076 95.606 149.076 92.5843C149.076 89.5616 147.288 86.7567 143.757 86.7567C140.227 86.7573 138.438 89.5616 138.438 92.5843ZM139.916 92.5843C139.916 90.3402 141.051 88.0037 143.757 88.0037C146.464 88.0037 147.599 90.3402 147.599 92.5843C147.599 94.8278 146.464 97.1644 143.757 97.1644C141.051 97.1644 139.916 94.8278 139.916 92.5843Z" fill="black"/>
<path d="M151.187 98.1456H152.587V89.2187H152.618L158.419 98.1456H160.037V87.0219H158.637V96.0429H158.606L152.758 87.0219H151.187V98.1456Z" fill="black"/>
<path d="M162.755 98.1456H166.565C170.267 98.1456 171.9 96.0429 171.9 92.3191C171.9 88.735 169.987 87.0214 166.565 87.0214H162.755V98.1456ZM164.232 88.2684H166.721C169.443 88.2684 170.422 89.873 170.422 92.5216C170.422 96.6196 167.701 96.9002 166.69 96.9002H164.232V88.2684Z" fill="black"/>
<path d="M174.088 98.1456H175.565V87.0219H174.088V98.1456Z" fill="black"/>
<path d="M187.652 90.3716C187.309 88.0037 185.396 86.7572 183.079 86.7572C179.657 86.7572 177.822 89.3904 177.822 92.6157C177.822 95.8558 179.502 98.4113 182.954 98.4113C185.755 98.4113 187.481 96.7286 187.761 93.9551H186.284C186.144 95.7941 185.024 97.1649 183.08 97.1649C180.419 97.1649 179.299 95.0458 179.299 92.5062C179.299 90.185 180.419 88.0037 183.064 88.0037C184.603 88.0037 185.863 88.7983 186.174 90.3716H187.652Z" fill="black"/>
<path d="M189.98 98.1456H191.459V87.0219H189.98V98.1456Z" fill="black"/>
<path d="M193.637 92.5843C193.637 95.606 195.426 98.4108 198.956 98.4108C202.487 98.4108 204.276 95.606 204.276 92.5843C204.276 89.5616 202.487 86.7567 198.956 86.7567C195.426 86.7573 193.637 89.5616 193.637 92.5843ZM195.116 92.5843C195.116 90.3402 196.251 88.0037 198.957 88.0037C201.663 88.0037 202.799 90.3402 202.799 92.5843C202.799 94.8278 201.663 97.1644 198.957 97.1644C196.251 97.1644 195.116 94.8278 195.116 92.5843Z" fill="black"/>
<path d="M206.386 98.1456H207.787V89.2187H207.818L213.619 98.1456H215.236V87.0219H213.837V96.0429H213.805L207.958 87.0219H206.386V98.1456Z" fill="black"/>
<path d="M216.632 98.1456H218.156L219.401 94.7965H224.098L225.31 98.1456H226.943L222.605 87.0214H220.971L216.632 98.1456ZM221.749 88.3619H221.779L223.631 93.5506H219.867L221.749 88.3619Z" fill="black"/>
<path d="M228.355 98.1456H232.166C235.868 98.1456 237.501 96.0429 237.501 92.3191C237.501 88.735 235.588 87.0214 232.166 87.0214H228.355V98.1456ZM229.833 88.2684H232.321C235.043 88.2684 236.023 89.873 236.023 92.5216C236.023 96.6196 233.301 96.9002 232.29 96.9002H229.833V88.2684Z" fill="black"/>
<path d="M239.004 92.5843C239.004 95.606 240.793 98.4108 244.323 98.4108C247.854 98.4108 249.643 95.606 249.643 92.5843C249.643 89.5616 247.854 86.7567 244.323 86.7567C240.793 86.7573 239.004 89.5616 239.004 92.5843ZM240.482 92.5843C240.482 90.3402 241.617 88.0037 244.323 88.0037C247.029 88.0037 248.165 90.3402 248.165 92.5843C248.165 94.8278 247.029 97.1644 244.323 97.1644C241.616 97.1644 240.482 94.8278 240.482 92.5843Z" fill="black"/>
</svg>
